<?xml version="1.0" encoding="utf-8"?>
<!-- Generator: Adobe Illustrator 17.1.0, SVG Export Plug-In . SVG Version: 6.00 Build 0)  -->
<!DOCTYPE svg PUBLIC "-//W3C//DTD SVG 1.1//EN" "http://www.w3.org/Graphics/SVG/1.1/DTD/svg11.dtd">
<svg version="1.1" id="Layer_1" xmlns="http://www.w3.org/2000/svg" xmlns:xlink="http://www.w3.org/1999/xlink" x="0px" y="0px"
	 viewBox="0 0 353 61.2" enable-background="new 0 0 353 61.2" xml:space="preserve">
<text transform="matrix(1 0 0 1 49.764 26.8209)"><tspan x="0" y="0" font-family="'SourceSansPro-Bold'" font-size="30">Simplifying </tspan><tspan x="0" y="27" font-family="'SourceSansPro-Bold'" font-size="30">Complexity</tspan></text>
<text transform="matrix(1 0 0 1 215.797 20.0428)"><tspan x="0" y="0" fill="#444444" font-family="'MyriadPro-Regular'" font-size="13.0277">a guide for making </tspan><tspan x="0" y="15.6" fill="#444444" font-family="'MyriadPro-Regular'" font-size="13.0277">complex systems easy </tspan><tspan x="0" y="31.3" fill="#444444" font-family="'MyriadPro-Regular'" font-size="13.0277">to understand</tspan></text>
<path fill="#FFB355" d="M34.8,22.1l-5.2,3.9h4.9c0.1-0.4,0.4-0.7,0.8-0.8v-2.8C35.1,22.2,34.9,22.2,34.8,22.1L34.8,22.1z"/>
<path fill="#FFB355" d="M13.2,26.3c0-0.3,0.3-0.6,0.6-0.6c0.3,0,0.6,0.3,0.6,0.6c0,0.3-0.3,0.6-0.6,0.6C13.5,27,13.2,26.7,13.2,26.3
	z M21.7,31.8c0,0.3-0.3,0.6-0.6,0.6s-0.6-0.3-0.6-0.6s0.3-0.6,0.6-0.6S21.7,31.5,21.7,31.8z M36.9,26.3c0,0.7-0.6,1.2-1.2,1.2
	c-0.6,0-1-0.4-1.2-0.9h-4.9c-0.1,0.5-0.6,0.9-1.2,0.9c-0.5,0-1-0.4-1.2-0.9h-5.7c-0.1,0.1-0.3,0.2-0.4,0.2H21l-6,4.5
	c0,0.1,0.1,0.3,0.1,0.4s0,0.3-0.1,0.4l5.4,4.1c0.2-0.1,0.4-0.2,0.7-0.2c0.7,0,1.2,0.6,1.2,1.2s-0.6,1.2-1.2,1.2s-1.2-0.6-1.2-1.2
	c0-0.1,0-0.3,0.1-0.4l-5.4-4.1c-0.2,0.1-0.4,0.2-0.7,0.2c-0.7,0-1.2-0.6-1.2-1.2c0-0.7,0.6-1.2,1.2-1.2c0.3,0,0.5,0.1,0.7,0.2
	l5.9-4.5l-5.9-4.3c-0.2,0.1-0.4,0.3-0.7,0.3c-0.7,0-1.2-0.6-1.2-1.2c0-0.7,0.6-1.2,1.2-1.2c0.7,0,1.2,0.6,1.2,1.2
	c0,0.1,0,0.3-0.1,0.4l5.9,4.3c0,0,0.1,0,0.1,0c0.2,0,0.3,0.1,0.4,0.2h5.6c0.1-0.5,0.6-0.9,1.2-0.9c0.3,0,0.5,0.1,0.7,0.2l5.4-4
	c0-0.1,0-0.1,0-0.3c0-0.7,0.6-1.2,1.2-1.2c0.7,0,1.2,0.6,1.2,1.2c0,0.6-0.4,1-0.9,1.2v2.8C36.5,25.3,36.9,25.8,36.9,26.3L36.9,26.3z
	 M35,31.8c0-0.3,0.3-0.6,0.6-0.6c0.3,0,0.6,0.3,0.6,0.6s-0.3,0.6-0.6,0.6C35.3,32.4,35,32.2,35,31.8z M35.6,38.6
	c-0.7,0-1.2-0.6-1.2-1.2c0-0.7,0.6-1.2,1.2-1.2c0.7,0,1.2,0.6,1.2,1.2C36.9,38,36.3,38.6,35.6,38.6z M28.4,32.9c-0.6,0-1-0.4-1-1
	c0-0.6,0.4-1,1-1s1,0.4,1,1C29.4,32.4,29,32.9,28.4,32.9z M28.4,38c-0.3,0-0.6-0.3-0.6-0.6s0.3-0.6,0.6-0.6c0.3,0,0.6,0.3,0.6,0.6
	S28.7,38,28.4,38z M13.8,38c-0.3,0-0.6-0.3-0.6-0.6s0.3-0.6,0.6-0.6c0.3,0,0.6,0.3,0.6,0.6S14.2,38,13.8,38z M21.1,20.5
	c0.3,0,0.6,0.3,0.6,0.6c0,0.3-0.3,0.6-0.6,0.6s-0.6-0.3-0.6-0.6C20.5,20.8,20.8,20.5,21.1,20.5z M28.4,20.5c0.3,0,0.6,0.3,0.6,0.6
	c0,0.3-0.3,0.6-0.6,0.6c-0.3,0-0.6-0.3-0.6-0.6C27.8,20.8,28,20.5,28.4,20.5z M24.7,7.9C13,7.9,3.4,17.5,3.4,29.2S13,50.5,24.7,50.5
	S46,41,46,29.2S36.5,7.9,24.7,7.9z"/>
</svg>
